<svg width="695" height="570" viewBox="0 0 695 570" fill="none" xmlns="http://www.w3.org/2000/svg">
<path d="M15.1926 419.016C15.1926 415.684 15.9366 412.708 17.4247 410.088C18.9452 407.435 20.9994 405.381 23.5874 403.925C26.2077 402.437 29.1354 401.693 32.3704 401.693C36.1553 401.693 39.4712 402.663 42.318 404.604C45.1647 406.545 47.1543 409.23 48.2865 412.66H40.474C39.6976 411.042 38.5977 409.829 37.1743 409.02C35.7833 408.211 34.1658 407.807 32.3218 407.807C30.3485 407.807 28.5854 408.276 27.0326 409.214C25.5122 410.12 24.3153 411.414 23.4418 413.096C22.6007 414.778 22.1802 416.752 22.1802 419.016C22.1802 421.248 22.6007 423.222 23.4418 424.936C24.3153 426.619 25.5122 427.929 27.0326 428.867C28.5854 429.773 30.3485 430.226 32.3218 430.226C34.1658 430.226 35.7833 429.821 37.1743 429.012C38.5977 428.171 39.6976 426.942 40.474 425.325H48.2865C47.1543 428.786 45.1647 431.487 42.318 433.428C39.5035 435.337 36.1877 436.291 32.3704 436.291C29.1354 436.291 26.2077 435.563 23.5874 434.108C20.9994 432.619 18.9452 430.565 17.4247 427.945C15.9366 425.325 15.1926 422.348 15.1926 419.016ZM66.0261 436.437C63.4381 436.437 61.1089 435.871 59.0385 434.738C56.9681 433.574 55.3345 431.94 54.1375 429.837C52.9729 427.735 52.3906 425.308 52.3906 422.559C52.3906 419.809 52.9891 417.383 54.186 415.28C55.4153 413.177 57.0814 411.56 59.1841 410.427C61.2868 409.263 63.6322 408.681 66.2202 408.681C68.8082 408.681 71.1535 409.263 73.2563 410.427C75.359 411.56 77.0089 413.177 78.2058 415.28C79.4351 417.383 80.0498 419.809 80.0498 422.559C80.0498 425.308 79.4189 427.735 78.1573 429.837C76.928 431.94 75.2458 433.574 73.1107 434.738C71.008 435.871 68.6464 436.437 66.0261 436.437ZM66.0261 430.517C67.2554 430.517 68.4038 430.226 69.4713 429.643C70.5712 429.029 71.4447 428.123 72.0917 426.926C72.7387 425.729 73.0622 424.273 73.0622 422.559C73.0622 420.003 72.3828 418.046 71.0241 416.687C69.6978 415.296 68.0641 414.601 66.1231 414.601C64.1821 414.601 62.5485 415.296 61.2221 416.687C59.9281 418.046 59.2811 420.003 59.2811 422.559C59.2811 425.114 59.912 427.088 61.1736 428.479C62.4676 429.837 64.0851 430.517 66.0261 430.517ZM99.9301 408.729C103.133 408.729 105.721 409.748 107.694 411.786C109.667 413.792 110.654 416.606 110.654 420.229V436H103.861V421.151C103.861 419.016 103.327 417.383 102.259 416.25C101.192 415.086 99.736 414.504 97.8921 414.504C96.0158 414.504 94.5277 415.086 93.4278 416.25C92.3603 417.383 91.8265 419.016 91.8265 421.151V436H85.033V409.117H91.8265V412.465C92.7323 411.301 93.8807 410.395 95.2718 409.748C96.6951 409.069 98.2479 408.729 99.9301 408.729ZM127.644 408.681C129.65 408.681 131.413 409.085 132.933 409.894C134.454 410.67 135.651 411.689 136.524 412.951V409.117H143.366V436.194C143.366 438.685 142.865 440.901 141.862 442.842C140.859 444.815 139.355 446.368 137.349 447.5C135.343 448.665 132.917 449.247 130.07 449.247C126.253 449.247 123.115 448.358 120.657 446.578C118.23 444.799 116.856 442.373 116.532 439.3H123.277C123.633 440.529 124.393 441.499 125.558 442.211C126.755 442.955 128.194 443.327 129.876 443.327C131.85 443.327 133.451 442.729 134.68 441.532C135.91 440.367 136.524 438.588 136.524 436.194V432.021C135.651 433.283 134.438 434.334 132.885 435.175C131.364 436.016 129.618 436.437 127.644 436.437C125.38 436.437 123.309 435.854 121.433 434.69C119.557 433.525 118.069 431.892 116.969 429.789C115.901 427.654 115.367 425.211 115.367 422.462C115.367 419.744 115.901 417.334 116.969 415.231C118.069 413.129 119.541 411.511 121.385 410.379C123.261 409.247 125.347 408.681 127.644 408.681ZM136.524 422.559C136.524 420.909 136.201 419.502 135.554 418.337C134.907 417.14 134.033 416.234 132.933 415.62C131.834 414.973 130.653 414.649 129.391 414.649C128.129 414.649 126.965 414.956 125.897 415.571C124.83 416.186 123.956 417.092 123.277 418.288C122.63 419.453 122.306 420.844 122.306 422.462C122.306 424.079 122.63 425.502 123.277 426.732C123.956 427.929 124.83 428.851 125.897 429.498C126.997 430.145 128.162 430.468 129.391 430.468C130.653 430.468 131.834 430.161 132.933 429.546C134.033 428.899 134.907 427.993 135.554 426.829C136.201 425.632 136.524 424.208 136.524 422.559ZM156.795 413.29C157.668 411.867 158.8 410.751 160.191 409.942C161.615 409.133 163.232 408.729 165.044 408.729V415.862H163.249C161.113 415.862 159.496 416.364 158.396 417.366C157.328 418.369 156.795 420.116 156.795 422.607V436H150.001V409.117H156.795V413.29ZM167.873 422.462C167.873 419.744 168.407 417.334 169.474 415.231C170.574 413.129 172.046 411.511 173.89 410.379C175.766 409.247 177.853 408.681 180.15 408.681C182.155 408.681 183.902 409.085 185.39 409.894C186.911 410.702 188.124 411.721 189.03 412.951V409.117H195.872V436H189.03V432.069C188.156 433.331 186.943 434.383 185.39 435.224C183.87 436.032 182.107 436.437 180.101 436.437C177.837 436.437 175.766 435.854 173.89 434.69C172.046 433.525 170.574 431.892 169.474 429.789C168.407 427.654 167.873 425.211 167.873 422.462ZM189.03 422.559C189.03 420.909 188.706 419.502 188.059 418.337C187.412 417.14 186.539 416.234 185.439 415.62C184.339 414.973 183.158 414.649 181.896 414.649C180.635 414.649 179.47 414.956 178.403 415.571C177.335 416.186 176.462 417.092 175.782 418.288C175.135 419.453 174.812 420.844 174.812 422.462C174.812 424.079 175.135 425.502 175.782 426.732C176.462 427.929 177.335 428.851 178.403 429.498C179.503 430.145 180.667 430.468 181.896 430.468C183.158 430.468 184.339 430.161 185.439 429.546C186.539 428.899 187.412 427.993 188.059 426.829C188.706 425.632 189.03 424.208 189.03 422.559ZM210.416 414.698V427.702C210.416 428.608 210.626 429.271 211.047 429.692C211.5 430.08 212.244 430.274 213.279 430.274H216.433V436H212.163C206.437 436 203.574 433.218 203.574 427.654V414.698H200.371V409.117H203.574V402.469H210.416V409.117H216.433V414.698H210.416ZM231.607 436.437C229.407 436.437 227.434 436.049 225.687 435.272C223.94 434.463 222.549 433.38 221.514 432.021C220.511 430.662 219.961 429.158 219.864 427.508H226.706C226.835 428.543 227.336 429.401 228.21 430.08C229.116 430.759 230.232 431.099 231.558 431.099C232.852 431.099 233.855 430.84 234.567 430.323C235.311 429.805 235.683 429.142 235.683 428.333C235.683 427.46 235.23 426.813 234.324 426.392C233.451 425.939 232.043 425.454 230.102 424.936C228.097 424.451 226.447 423.95 225.153 423.432C223.891 422.914 222.791 422.122 221.853 421.054C220.947 419.987 220.494 418.547 220.494 416.736C220.494 415.248 220.915 413.889 221.756 412.66C222.63 411.43 223.859 410.46 225.444 409.748C227.062 409.036 228.954 408.681 231.121 408.681C234.324 408.681 236.88 409.489 238.788 411.107C240.697 412.692 241.748 414.843 241.942 417.561H235.44C235.343 416.493 234.89 415.652 234.081 415.037C233.305 414.39 232.254 414.067 230.927 414.067C229.698 414.067 228.744 414.293 228.064 414.746C227.417 415.199 227.094 415.83 227.094 416.639C227.094 417.544 227.547 418.24 228.453 418.725C229.358 419.178 230.766 419.647 232.674 420.132C234.615 420.618 236.217 421.119 237.478 421.637C238.74 422.154 239.824 422.963 240.729 424.063C241.667 425.13 242.153 426.554 242.185 428.333C242.185 429.886 241.748 431.277 240.875 432.506C240.034 433.736 238.804 434.706 237.187 435.418C235.602 436.097 233.742 436.437 231.607 436.437ZM256.545 401.547L255.768 424.985H250.042L249.217 401.547H256.545ZM253.051 436.34C251.822 436.34 250.802 435.968 249.994 435.224C249.217 434.447 248.829 433.493 248.829 432.361C248.829 431.228 249.217 430.29 249.994 429.546C250.802 428.77 251.822 428.382 253.051 428.382C254.248 428.382 255.234 428.77 256.011 429.546C256.787 430.29 257.175 431.228 257.175 432.361C257.175 433.493 256.787 434.447 256.011 435.224C255.234 435.968 254.248 436.34 253.051 436.34ZM303.41 402.13L291.958 424.208V436H285.164V424.208L273.664 402.13H281.331L288.61 417.609L295.84 402.13H303.41ZM319.265 436.437C316.677 436.437 314.348 435.871 312.277 434.738C310.207 433.574 308.573 431.94 307.376 429.837C306.212 427.735 305.629 425.308 305.629 422.559C305.629 419.809 306.228 417.383 307.425 415.28C308.654 413.177 310.32 411.56 312.423 410.427C314.526 409.263 316.871 408.681 319.459 408.681C322.047 408.681 324.392 409.263 326.495 410.427C328.598 411.56 330.248 413.177 331.444 415.28C332.674 417.383 333.288 419.809 333.288 422.559C333.288 425.308 332.658 427.735 331.396 429.837C330.167 431.94 328.484 433.574 326.349 434.738C324.247 435.871 321.885 436.437 319.265 436.437ZM319.265 430.517C320.494 430.517 321.642 430.226 322.71 429.643C323.81 429.029 324.683 428.123 325.33 426.926C325.977 425.729 326.301 424.273 326.301 422.559C326.301 420.003 325.622 418.046 324.263 416.687C322.936 415.296 321.303 414.601 319.362 414.601C317.421 414.601 315.787 415.296 314.461 416.687C313.167 418.046 312.52 420.003 312.52 422.559C312.52 425.114 313.151 427.088 314.412 428.479C315.706 429.837 317.324 430.517 319.265 430.517ZM363.65 409.117V436H356.808V432.603C355.935 433.768 354.786 434.69 353.363 435.369C351.972 436.016 350.451 436.34 348.802 436.34C346.699 436.34 344.839 435.903 343.221 435.03C341.604 434.124 340.326 432.814 339.388 431.099C338.482 429.352 338.029 427.282 338.029 424.888V409.117H344.823V423.917C344.823 426.052 345.356 427.702 346.424 428.867C347.491 429.999 348.947 430.565 350.791 430.565C352.667 430.565 354.139 429.999 355.207 428.867C356.274 427.702 356.808 426.052 356.808 423.917V409.117H363.65ZM392.203 436.437C390.003 436.437 388.03 436.049 386.283 435.272C384.536 434.463 383.145 433.38 382.11 432.021C381.107 430.662 380.557 429.158 380.46 427.508H387.302C387.431 428.543 387.933 429.401 388.806 430.08C389.712 430.759 390.828 431.099 392.154 431.099C393.448 431.099 394.451 430.84 395.163 430.323C395.907 429.805 396.279 429.142 396.279 428.333C396.279 427.46 395.826 426.813 394.92 426.392C394.047 425.939 392.64 425.454 390.699 424.936C388.693 424.451 387.043 423.95 385.749 423.432C384.487 422.914 383.387 422.122 382.449 421.054C381.544 419.987 381.091 418.547 381.091 416.736C381.091 415.248 381.511 413.889 382.352 412.66C383.226 411.43 384.455 410.46 386.04 409.748C387.658 409.036 389.55 408.681 391.718 408.681C394.92 408.681 397.476 409.489 399.384 411.107C401.293 412.692 402.344 414.843 402.539 417.561H396.036C395.939 416.493 395.486 415.652 394.678 415.037C393.901 414.39 392.85 414.067 391.523 414.067C390.294 414.067 389.34 414.293 388.661 414.746C388.014 415.199 387.69 415.83 387.69 416.639C387.69 417.544 388.143 418.24 389.049 418.725C389.955 419.178 391.362 419.647 393.27 420.132C395.211 420.618 396.813 421.119 398.074 421.637C399.336 422.154 400.42 422.963 401.325 424.063C402.264 425.13 402.749 426.554 402.781 428.333C402.781 429.886 402.344 431.277 401.471 432.506C400.63 433.736 399.401 434.706 397.783 435.418C396.198 436.097 394.338 436.437 392.203 436.437ZM433.736 409.117V436H426.894V432.603C426.021 433.768 424.872 434.69 423.449 435.369C422.058 436.016 420.538 436.34 418.888 436.34C416.785 436.34 414.925 435.903 413.307 435.03C411.69 434.124 410.412 432.814 409.474 431.099C408.568 429.352 408.115 427.282 408.115 424.888V409.117H414.909V423.917C414.909 426.052 415.442 427.702 416.51 428.867C417.578 429.999 419.033 430.565 420.877 430.565C422.753 430.565 424.225 429.999 425.293 428.867C426.36 427.702 426.894 426.052 426.894 423.917V409.117H433.736ZM438.692 422.559C438.692 419.777 439.258 417.35 440.391 415.28C441.523 413.177 443.092 411.56 445.097 410.427C447.103 409.263 449.4 408.681 451.988 408.681C455.32 408.681 458.07 409.522 460.237 411.204C462.437 412.854 463.909 415.183 464.653 418.191H457.326C456.938 417.027 456.274 416.121 455.336 415.474C454.43 414.795 453.298 414.455 451.939 414.455C449.998 414.455 448.462 415.167 447.33 416.59C446.197 417.981 445.631 419.971 445.631 422.559C445.631 425.114 446.197 427.104 447.33 428.527C448.462 429.918 449.998 430.614 451.939 430.614C454.689 430.614 456.485 429.384 457.326 426.926H464.653C463.909 429.837 462.437 432.15 460.237 433.865C458.037 435.579 455.288 436.437 451.988 436.437C449.4 436.437 447.103 435.871 445.097 434.738C443.092 433.574 441.523 431.956 440.391 429.886C439.258 427.783 438.692 425.341 438.692 422.559ZM467.883 422.559C467.883 419.777 468.449 417.35 469.581 415.28C470.714 413.177 472.282 411.56 474.288 410.427C476.294 409.263 478.591 408.681 481.179 408.681C484.511 408.681 487.26 409.522 489.428 411.204C491.628 412.854 493.1 415.183 493.844 418.191H486.516C486.128 417.027 485.465 416.121 484.527 415.474C483.621 414.795 482.489 414.455 481.13 414.455C479.189 414.455 477.653 415.167 476.52 416.59C475.388 417.981 474.822 419.971 474.822 422.559C474.822 425.114 475.388 427.104 476.52 428.527C477.653 429.918 479.189 430.614 481.13 430.614C483.88 430.614 485.675 429.384 486.516 426.926H493.844C493.1 429.837 491.628 432.15 489.428 433.865C487.228 435.579 484.478 436.437 481.179 436.437C478.591 436.437 476.294 435.871 474.288 434.738C472.282 433.574 470.714 431.956 469.581 429.886C468.449 427.783 467.883 425.341 467.883 422.559ZM523.811 421.976C523.811 422.947 523.746 423.82 523.617 424.597H503.964C504.126 426.538 504.805 428.058 506.002 429.158C507.199 430.258 508.671 430.808 510.418 430.808C512.941 430.808 514.737 429.724 515.804 427.557H523.131C522.355 430.145 520.867 432.28 518.667 433.962C516.467 435.612 513.766 436.437 510.563 436.437C507.976 436.437 505.646 435.871 503.576 434.738C501.538 433.574 499.937 431.94 498.772 429.837C497.64 427.735 497.074 425.308 497.074 422.559C497.074 419.777 497.64 417.334 498.772 415.231C499.904 413.129 501.489 411.511 503.527 410.379C505.565 409.247 507.911 408.681 510.563 408.681C513.119 408.681 515.4 409.23 517.405 410.33C519.444 411.43 521.012 412.999 522.112 415.037C523.245 417.043 523.811 419.356 523.811 421.976ZM516.775 420.035C516.742 418.288 516.111 416.897 514.882 415.862C513.653 414.795 512.149 414.261 510.369 414.261C508.687 414.261 507.264 414.778 506.099 415.814C504.967 416.817 504.271 418.224 504.013 420.035H516.775ZM539.057 436.437C536.857 436.437 534.883 436.049 533.137 435.272C531.39 434.463 529.999 433.38 528.963 432.021C527.961 430.662 527.411 429.158 527.314 427.508H534.156C534.285 428.543 534.786 429.401 535.66 430.08C536.566 430.759 537.682 431.099 539.008 431.099C540.302 431.099 541.305 430.84 542.017 430.323C542.761 429.805 543.133 429.142 543.133 428.333C543.133 427.46 542.68 426.813 541.774 426.392C540.901 425.939 539.493 425.454 537.552 424.936C535.547 424.451 533.897 423.95 532.603 423.432C531.341 422.914 530.241 422.122 529.303 421.054C528.397 419.987 527.944 418.547 527.944 416.736C527.944 415.248 528.365 413.889 529.206 412.66C530.08 411.43 531.309 410.46 532.894 409.748C534.511 409.036 536.404 408.681 538.571 408.681C541.774 408.681 544.33 409.489 546.238 411.107C548.147 412.692 549.198 414.843 549.392 417.561H542.89C542.793 416.493 542.34 415.652 541.531 415.037C540.755 414.39 539.704 414.067 538.377 414.067C537.148 414.067 536.194 414.293 535.514 414.746C534.867 415.199 534.544 415.83 534.544 416.639C534.544 417.544 534.997 418.24 535.902 418.725C536.808 419.178 538.216 419.647 540.124 420.132C542.065 420.618 543.666 421.119 544.928 421.637C546.19 422.154 547.273 422.963 548.179 424.063C549.117 425.13 549.603 426.554 549.635 428.333C549.635 429.886 549.198 431.277 548.325 432.506C547.484 433.736 546.254 434.706 544.637 435.418C543.052 436.097 541.192 436.437 539.057 436.437ZM565.499 436.437C563.299 436.437 561.326 436.049 559.579 435.272C557.832 434.463 556.441 433.38 555.406 432.021C554.403 430.662 553.853 429.158 553.756 427.508H560.598C560.727 428.543 561.229 429.401 562.102 430.08C563.008 430.759 564.124 431.099 565.45 431.099C566.744 431.099 567.747 430.84 568.459 430.323C569.203 429.805 569.575 429.142 569.575 428.333C569.575 427.46 569.122 426.813 568.216 426.392C567.343 425.939 565.936 425.454 563.995 424.936C561.989 424.451 560.339 423.95 559.045 423.432C557.783 422.914 556.684 422.122 555.745 421.054C554.84 419.987 554.387 418.547 554.387 416.736C554.387 415.248 554.807 413.889 555.648 412.66C556.522 411.43 557.751 410.46 559.336 409.748C560.954 409.036 562.846 408.681 565.014 408.681C568.216 408.681 570.772 409.489 572.681 411.107C574.589 412.692 575.641 414.843 575.835 417.561H569.332C569.235 416.493 568.782 415.652 567.974 415.037C567.197 414.39 566.146 414.067 564.82 414.067C563.59 414.067 562.636 414.293 561.957 414.746C561.31 415.199 560.986 415.83 560.986 416.639C560.986 417.544 561.439 418.24 562.345 418.725C563.251 419.178 564.658 419.647 566.566 420.132C568.507 420.618 570.109 421.119 571.37 421.637C572.632 422.154 573.716 422.963 574.622 424.063C575.56 425.13 576.045 426.554 576.077 428.333C576.077 429.886 575.641 431.277 574.767 432.506C573.926 433.736 572.697 434.706 571.079 435.418C569.494 436.097 567.634 436.437 565.499 436.437ZM593.979 414.698H589.272V436H582.382V414.698H579.325V409.117H582.382V407.759C582.382 404.459 583.32 402.033 585.196 400.48C587.072 398.927 589.903 398.199 593.688 398.296V404.022C592.038 403.99 590.89 404.265 590.243 404.847C589.596 405.429 589.272 406.481 589.272 408.001V409.117H593.979V414.698ZM623.76 409.117V436H616.918V432.603C616.045 433.768 614.896 434.69 613.473 435.369C612.082 436.016 610.561 436.34 608.911 436.34C606.809 436.34 604.949 435.903 603.331 435.03C601.714 434.124 600.436 432.814 599.498 431.099C598.592 429.352 598.139 427.282 598.139 424.888V409.117H604.932V423.917C604.932 426.052 605.466 427.702 606.534 428.867C607.601 429.999 609.057 430.565 610.901 430.565C612.777 430.565 614.249 429.999 615.317 428.867C616.384 427.702 616.918 426.052 616.918 423.917V409.117H623.76ZM637.256 400.092V436H630.463V400.092H637.256ZM650.762 400.092V436H643.968V400.092H650.762ZM683.192 409.117L666.548 448.713H659.318L665.141 435.321L654.368 409.117H661.987L668.926 427.896L675.962 409.117H683.192ZM239.994 509.437C237.794 509.437 235.821 509.049 234.074 508.272C232.327 507.463 230.936 506.38 229.901 505.021C228.898 503.662 228.348 502.158 228.251 500.508H235.093C235.223 501.543 235.724 502.401 236.598 503.08C237.503 503.759 238.619 504.099 239.946 504.099C241.24 504.099 242.243 503.84 242.954 503.323C243.698 502.805 244.07 502.142 244.07 501.333C244.07 500.46 243.617 499.813 242.712 499.392C241.838 498.939 240.431 498.454 238.49 497.936C236.484 497.451 234.834 496.95 233.54 496.432C232.279 495.914 231.179 495.122 230.241 494.054C229.335 492.987 228.882 491.547 228.882 489.736C228.882 488.248 229.303 486.889 230.144 485.66C231.017 484.43 232.246 483.46 233.832 482.748C235.449 482.036 237.342 481.681 239.509 481.681C242.712 481.681 245.267 482.489 247.176 484.107C249.085 485.692 250.136 487.843 250.33 490.561H243.828C243.731 489.493 243.278 488.652 242.469 488.037C241.693 487.39 240.641 487.067 239.315 487.067C238.086 487.067 237.131 487.293 236.452 487.746C235.805 488.199 235.481 488.83 235.481 489.639C235.481 490.544 235.934 491.24 236.84 491.725C237.746 492.178 239.153 492.647 241.062 493.132C243.003 493.618 244.604 494.119 245.866 494.637C247.127 495.154 248.211 495.963 249.117 497.063C250.055 498.13 250.54 499.554 250.573 501.333C250.573 502.886 250.136 504.277 249.262 505.506C248.421 506.736 247.192 507.706 245.575 508.418C243.989 509.097 242.129 509.437 239.994 509.437ZM259.594 478.915C258.398 478.915 257.395 478.543 256.586 477.799C255.81 477.022 255.421 476.068 255.421 474.936C255.421 473.803 255.81 472.865 256.586 472.121C257.395 471.345 258.398 470.957 259.594 470.957C260.791 470.957 261.778 471.345 262.554 472.121C263.363 472.865 263.768 473.803 263.768 474.936C263.768 476.068 263.363 477.022 262.554 477.799C261.778 478.543 260.791 478.915 259.594 478.915ZM262.943 482.117V509H256.149V482.117H262.943ZM280.185 481.681C282.19 481.681 283.953 482.085 285.474 482.894C286.994 483.67 288.191 484.689 289.065 485.951V482.117H295.907V509.194C295.907 511.685 295.405 513.901 294.402 515.842C293.399 517.815 291.895 519.368 289.889 520.5C287.884 521.665 285.458 522.247 282.611 522.247C278.793 522.247 275.656 521.358 273.197 519.578C270.771 517.799 269.396 515.373 269.072 512.3H275.817C276.173 513.529 276.933 514.499 278.098 515.211C279.295 515.955 280.734 516.327 282.417 516.327C284.39 516.327 285.991 515.729 287.221 514.532C288.45 513.367 289.065 511.588 289.065 509.194V505.021C288.191 506.283 286.978 507.334 285.425 508.175C283.905 509.016 282.158 509.437 280.185 509.437C277.92 509.437 275.85 508.854 273.973 507.69C272.097 506.525 270.609 504.892 269.509 502.789C268.442 500.654 267.908 498.211 267.908 495.462C267.908 492.744 268.442 490.334 269.509 488.231C270.609 486.129 272.081 484.511 273.925 483.379C275.801 482.247 277.888 481.681 280.185 481.681ZM289.065 495.559C289.065 493.909 288.741 492.502 288.094 491.337C287.447 490.14 286.574 489.234 285.474 488.62C284.374 487.973 283.193 487.649 281.931 487.649C280.67 487.649 279.505 487.956 278.438 488.571C277.37 489.186 276.497 490.092 275.817 491.288C275.17 492.453 274.847 493.844 274.847 495.462C274.847 497.079 275.17 498.502 275.817 499.732C276.497 500.929 277.37 501.851 278.438 502.498C279.538 503.145 280.702 503.468 281.931 503.468C283.193 503.468 284.374 503.161 285.474 502.546C286.574 501.899 287.447 500.993 288.094 499.829C288.741 498.632 289.065 497.208 289.065 495.559ZM317.439 481.729C320.641 481.729 323.229 482.748 325.203 484.786C327.176 486.792 328.163 489.606 328.163 493.229V509H321.369V494.151C321.369 492.016 320.835 490.383 319.768 489.25C318.7 488.086 317.245 487.504 315.401 487.504C313.524 487.504 312.036 488.086 310.936 489.25C309.869 490.383 309.335 492.016 309.335 494.151V509H302.542V482.117H309.335V485.465C310.241 484.301 311.389 483.395 312.78 482.748C314.204 482.069 315.756 481.729 317.439 481.729ZM359.613 494.976C359.613 495.947 359.548 496.82 359.419 497.597H339.766C339.928 499.538 340.608 501.058 341.805 502.158C343.001 503.258 344.473 503.808 346.22 503.808C348.744 503.808 350.539 502.724 351.607 500.557H358.934C358.157 503.145 356.669 505.28 354.47 506.962C352.27 508.612 349.569 509.437 346.366 509.437C343.778 509.437 341.449 508.871 339.378 507.738C337.34 506.574 335.739 504.94 334.574 502.837C333.442 500.735 332.876 498.308 332.876 495.559C332.876 492.777 333.442 490.334 334.574 488.231C335.707 486.129 337.292 484.511 339.33 483.379C341.368 482.247 343.713 481.681 346.366 481.681C348.922 481.681 351.202 482.23 353.208 483.33C355.246 484.43 356.815 485.999 357.915 488.037C359.047 490.043 359.613 492.356 359.613 494.976ZM352.577 493.035C352.545 491.288 351.914 489.897 350.685 488.862C349.455 487.795 347.951 487.261 346.172 487.261C344.49 487.261 343.066 487.778 341.902 488.814C340.769 489.817 340.074 491.224 339.815 493.035H352.577ZM362.825 495.462C362.825 492.744 363.359 490.334 364.426 488.231C365.526 486.129 367.014 484.511 368.89 483.379C370.767 482.247 372.853 481.681 375.15 481.681C376.897 481.681 378.563 482.069 380.148 482.845C381.733 483.589 382.995 484.592 383.933 485.854V473.092H390.824V509H383.933V505.021C383.092 506.347 381.911 507.415 380.391 508.224C378.87 509.032 377.107 509.437 375.102 509.437C372.837 509.437 370.767 508.854 368.89 507.69C367.014 506.525 365.526 504.892 364.426 502.789C363.359 500.654 362.825 498.211 362.825 495.462ZM383.982 495.559C383.982 493.909 383.658 492.502 383.011 491.337C382.364 490.14 381.491 489.234 380.391 488.62C379.291 487.973 378.11 487.649 376.849 487.649C375.587 487.649 374.422 487.956 373.355 488.571C372.287 489.186 371.414 490.092 370.734 491.288C370.087 492.453 369.764 493.844 369.764 495.462C369.764 497.079 370.087 498.502 370.734 499.732C371.414 500.929 372.287 501.851 373.355 502.498C374.455 503.145 375.619 503.468 376.849 503.468C378.11 503.468 379.291 503.161 380.391 502.546C381.491 501.899 382.364 500.993 383.011 499.829C383.658 498.632 383.982 497.208 383.982 495.559ZM434.4 482.117V509H427.558V505.603C426.684 506.768 425.536 507.69 424.112 508.369C422.721 509.016 421.201 509.34 419.551 509.34C417.448 509.34 415.588 508.903 413.971 508.03C412.353 507.124 411.075 505.814 410.137 504.099C409.231 502.352 408.779 500.282 408.779 497.888V482.117H415.572V496.917C415.572 499.052 416.106 500.702 417.173 501.867C418.241 502.999 419.697 503.565 421.541 503.565C423.417 503.565 424.889 502.999 425.956 501.867C427.024 500.702 427.558 499.052 427.558 496.917V482.117H434.4ZM447.896 485.999C448.769 484.77 449.966 483.751 451.487 482.942C453.04 482.101 454.803 481.681 456.776 481.681C459.073 481.681 461.143 482.247 462.987 483.379C464.864 484.511 466.335 486.129 467.403 488.231C468.503 490.302 469.053 492.712 469.053 495.462C469.053 498.211 468.503 500.654 467.403 502.789C466.335 504.892 464.864 506.525 462.987 507.69C461.143 508.854 459.073 509.437 456.776 509.437C454.803 509.437 453.056 509.032 451.535 508.224C450.047 507.415 448.834 506.396 447.896 505.167V521.811H441.103V482.117H447.896V485.999ZM462.114 495.462C462.114 493.844 461.774 492.453 461.095 491.288C460.448 490.092 459.574 489.186 458.474 488.571C457.407 487.956 456.242 487.649 454.981 487.649C453.751 487.649 452.587 487.973 451.487 488.62C450.419 489.234 449.546 490.14 448.867 491.337C448.22 492.534 447.896 493.941 447.896 495.559C447.896 497.176 448.22 498.583 448.867 499.78C449.546 500.977 450.419 501.899 451.487 502.546C452.587 503.161 453.751 503.468 454.981 503.468C456.242 503.468 457.407 503.145 458.474 502.498C459.574 501.851 460.448 500.929 461.095 499.732C461.774 498.535 462.114 497.111 462.114 495.462Z" fill="black"/>
<path d="M317.038 145.832C314.983 143.434 312.098 139.073 309.518 134.95C305.182 128.021 308.534 118.684 316.4 116.46C316.911 116.316 317.409 116.214 317.886 116.166C326.981 115.247 333.405 106.478 330.879 97.6934C330.808 97.4443 330.729 97.1964 330.644 96.9497C328.645 91.1848 323.687 85.7666 322.295 79.9686C320.904 74.1701 326.413 65.3034 334.819 65.7604" stroke="#F37A39" stroke-width="10.8534" stroke-miterlimit="10" stroke-linecap="round"/>
<path d="M405.58 225.301C408.269 228.239 413.107 232.405 417.67 236.141C425.341 242.419 435.107 238.193 436.995 227.435C437.118 226.736 437.195 226.053 437.216 225.398C437.634 212.889 446.601 204.401 456.142 208.26C456.412 208.369 456.682 208.488 456.951 208.617C463.233 211.621 469.329 218.693 475.608 220.86C481.888 223.027 491.017 215.804 490.008 204.187" stroke="#F37A39" stroke-width="10.8534" stroke-miterlimit="10" stroke-linecap="round"/>
<path d="M393.594 67.7607V91.6994" stroke="#81CED4" stroke-width="5.71232" stroke-miterlimit="10" stroke-linecap="round"/>
<path d="M403.739 79.7297H383.45" stroke="#81CED4" stroke-width="5.71232" stroke-miterlimit="10" stroke-linecap="round"/>
<path d="M410.173 159.184V175.091" stroke="#81CED4" stroke-width="4.56986" stroke-miterlimit="10" stroke-linecap="round"/>
<path d="M416.914 167.138H403.432" stroke="#81CED4" stroke-width="4.56986" stroke-miterlimit="10" stroke-linecap="round"/>
<path d="M353.647 97.1947C353.647 99.6956 351.62 101.723 349.12 101.723C346.619 101.723 344.591 99.6956 344.591 97.1947C344.591 94.6945 346.619 92.6677 349.12 92.6677C351.62 92.6677 353.647 94.6945 353.647 97.1947Z" fill="#FBE09C"/>
<path d="M395.932 193.977C395.932 196.478 393.905 198.505 391.404 198.505C388.903 198.505 386.876 196.478 386.876 193.977C386.876 191.476 388.903 189.449 391.404 189.449C393.905 189.449 395.932 191.476 395.932 193.977Z" fill="#FBE09C"/>
<path d="M391.404 115.93C391.404 118.431 389.376 120.458 386.876 120.458C384.375 120.458 382.348 118.431 382.348 115.93C382.348 113.429 384.375 111.402 386.876 111.402C389.376 111.402 391.404 113.429 391.404 115.93Z" fill="#2C9993"/>
<path d="M358.175 147.042C358.175 149.543 356.147 151.57 353.647 151.57C351.146 151.57 349.119 149.543 349.119 147.042C349.119 144.542 351.146 142.515 353.647 142.515C356.147 142.515 358.175 144.542 358.175 147.042Z" fill="#81CED4"/>
<path d="M454.384 123.381C454.384 133.728 445.995 142.116 435.648 142.116C425.301 142.116 416.913 133.728 416.913 123.381C416.913 113.034 425.301 104.646 435.648 104.646C445.995 104.646 454.384 113.034 454.384 123.381Z" stroke="#EC8574" stroke-width="11.4246" stroke-miterlimit="10"/>
<path d="M288.675 150.111L388.289 249.725C344.91 273.222 275.392 315.271 239.697 330.685C224.055 337.439 202.145 323.726 208.594 307.955C228.219 259.963 288.675 150.111 288.675 150.111Z" fill="#FFC34F"/>
<path d="M292.858 142.722C291.548 141.412 289.684 140.82 287.857 141.131C286.031 141.443 284.47 142.621 283.669 144.293L205.355 307.659C205.312 307.748 205.271 307.839 205.234 307.93C201.932 315.846 203.378 323.988 209.1 329.711C212.798 333.409 217.505 335.321 222.509 335.321C225.249 335.321 228.08 334.746 230.882 333.578C230.973 333.541 231.063 333.499 231.153 333.457L394.52 255.144C396.19 254.342 397.368 252.781 397.68 250.954C397.992 249.128 397.399 247.264 396.089 245.954L292.858 142.722ZM290.483 156.503L348.269 214.289C325.91 213.369 301.373 204.764 275.086 188.62L290.483 156.503ZM226.361 323.085C224.246 323.94 220.359 324.814 217.177 321.632C213.997 318.453 214.871 314.564 215.725 312.451L231.144 280.288C242.178 289.532 253.335 297.747 264.464 304.82L226.361 323.085ZM338.312 269.419C331.462 267.718 324.374 265.373 317.204 262.418C314.287 261.215 310.949 262.605 309.747 265.522C308.545 268.438 309.935 271.777 312.851 272.979C316.235 274.374 319.606 275.639 322.952 276.782L276.713 298.947C263.242 290.909 249.655 281.072 236.246 269.645L252.226 236.308C257.12 240.172 262.053 243.853 266.958 247.291C267.956 247.991 269.099 248.327 270.232 248.327C272.032 248.327 273.803 247.479 274.915 245.893C276.725 243.311 276.099 239.748 273.517 237.938C268.115 234.151 262.674 230.056 257.293 225.739L270.122 198.977C299.438 216.8 326.996 225.796 352.267 225.796C354.706 225.796 357.125 225.709 359.521 225.541L382.308 248.327L338.312 269.419Z" fill="#F37A39"/>
<path d="M291.948 250.668H291.943C288.789 250.668 286.234 253.226 286.234 256.38C286.234 259.534 288.794 262.091 291.948 262.091C295.102 262.091 297.66 259.534 297.66 256.38C297.66 253.226 295.102 250.668 291.948 250.668Z" fill="#F37A39"/>
</svg>
